<svg width="240" height="57" viewBox="0 0 240 57" fill="none" xmlns="http://www.w3.org/2000/svg">
<path d="M237.688 19.3221C235.745 16.922 232.851 15.5467 229.782 15.5467H142.756C137.584 15.5467 132.975 18.567 130.777 23.084C130.469 22.302 130.08 21.5469 129.611 20.8458C127.722 18.0411 124.748 16.2748 120.982 15.722C120.246 15.6141 119.495 15.5602 118.745 15.5602C115.516 15.5602 112.313 16.5984 109.62 18.3513C109.526 18.2164 109.433 18.0681 109.325 17.9333C107.436 15.5602 104.381 15.5602 103.376 15.5602H99.5173C96.3551 15.5602 94.439 16.7063 93.2867 18.1086C93.2197 18.0277 93.1661 17.9333 93.0992 17.8524C92.7642 17.4344 92.389 17.0973 91.9468 16.7872C94.1309 15.0613 95.5646 12.3915 95.5646 9.39812C95.5646 4.22039 91.3439 0 86.1719 0C80.9865 0 76.7792 4.2069 76.7792 9.39812C76.7792 12.0679 77.9047 14.4815 79.6868 16.1939C78.856 16.531 78.0655 17.0164 77.3687 17.7175C76.27 16.3422 74.5683 15.5602 72.6389 15.5602H67.5875C63.3936 15.5602 61.5177 17.9737 60.6736 20.0233L59.4275 23.0975V22.9357C59.2131 17.5018 55.8499 15.5602 52.7816 15.5602H47.6096C44.3268 15.5602 41.8882 17.1243 40.7493 19.9693L39.5166 23.0301L39.5032 22.5986C39.3558 16.477 35.3093 15.5736 32.9108 15.5736H20.4096C20.2756 15.5736 20.1416 15.5602 20.0076 15.5602C18.4265 15.5602 16.8454 15.9512 15.2912 16.7332L4.94713 21.4121C0.766644 23.3133 -1.14941 28.2887 0.713048 32.5226C1.98595 35.3677 4.70595 37.2419 7.73412 37.4711L6.38083 44.8602C5.49649 50.0784 8.81944 54.9325 13.9647 55.9303C14.5274 56.0381 15.117 56.0921 15.6931 56.0921C19.6592 56.0921 23.0894 53.7055 24.4963 50.1997C25.2868 53.8403 27.9934 56.0247 31.8925 56.0247H38.86C43.2013 56.0247 44.9297 52.3571 45.7203 50.4829C46.4974 53.9482 49.0834 56.0921 52.6878 56.0921H60.5932C65.3632 56.0921 66.9711 52.1548 67.7483 50.2402L72.0895 39.5341L70.629 47.7322C70.1735 50.1593 70.6022 52.3436 71.8617 53.8942C73.0274 55.31 74.7827 56.0786 76.8462 56.0786H82.2996C85.1133 56.0786 86.8284 54.8785 87.9003 53.4088C87.9941 53.5437 88.0745 53.6785 88.1683 53.7998C88.9991 54.8516 90.5533 56.0786 93.2867 56.0786H98.6329C104.662 56.0786 105.654 50.6042 106.043 48.5277L108.213 36.5003C108.642 34.1272 108.937 33.4125 109.258 33.062L109.325 32.9945C109.58 32.7114 110.089 32.4282 110.598 32.4282C110.88 32.4282 111.027 32.5091 111.121 32.59C111.55 32.9945 111.469 33.4395 111.308 34.68L109.138 47.6648C108.615 50.8469 109.593 52.829 110.531 53.9212C111.71 55.31 113.439 56.0651 115.435 56.0651H120.781C124.48 56.0651 126.248 53.9617 127.159 51.8582C127.36 52.1818 127.588 52.5054 127.843 52.8155C129.598 54.9729 132.211 56.2134 134.984 56.2134H225.294C230.412 56.2134 234.861 52.5459 235.866 47.503L239.791 27.8573C240.408 24.8234 239.644 21.7087 237.688 19.3221Z" fill="#080F20"/>
<path d="M25.9697 26.5502C26.586 23.4894 25.4739 21.278 23.4105 19.8488C21.5346 18.6083 19.1764 18.406 16.6842 19.66L6.28653 24.3523C3.67373 25.5524 2.56161 28.6132 3.67373 31.1885C4.86624 33.8178 7.84082 34.937 10.467 33.8178L11.8337 33.1976L9.59609 45.4138C8.97973 49.1218 11.338 52.1152 14.5805 52.7489C18.0107 53.3692 21.3738 51.1174 21.9232 47.6656L25.9697 26.5502Z" fill="url(#paint0_linear_2199_51383)"/>
<path d="M120.526 18.9322C114.805 18.0962 109.03 21.4671 106.819 26.2134L107.194 24.1504C108.132 19.957 106.39 18.8109 103.402 18.8109H99.5434C95.8587 18.8109 95.0547 20.8199 94.626 23.1391L90.1373 48.2188C89.7621 49.9177 90.0167 52.8571 93.3129 52.8571H98.6457C101.821 52.8571 102.438 50.3492 102.88 47.9761L105.05 35.9486C105.546 33.1845 105.988 31.8765 106.926 30.8653C108.36 29.2337 111.227 28.4787 113.21 30.1102C114.403 31.1215 114.832 32.8069 114.51 35.1935L112.339 48.2322C111.87 51.1177 113.09 52.8706 115.448 52.8706H120.794C123.836 52.8706 124.479 50.484 124.908 47.9895L128.043 31.6743C129.356 25.6875 127.427 19.9435 120.526 18.9322Z" fill="url(#paint1_linear_2199_51383)"/>
<path d="M86.1848 15.5747C89.5888 15.5747 92.3483 12.8219 92.3483 9.42614C92.3483 6.03039 89.5888 3.27759 86.1848 3.27759C82.7807 3.27759 80.0212 6.03039 80.0212 9.42614C80.0212 12.8219 82.7807 15.5747 86.1848 15.5747Z" fill="url(#paint2_linear_2199_51383)"/>
<path d="M86.5605 47.963C86.1318 50.5923 85.368 52.8441 82.3264 52.8441H76.9132C74.3004 52.8441 73.3625 50.9024 73.8717 48.327L78.3603 23.1395C78.7891 20.4428 79.9816 18.8113 83.2778 18.8113H87.3913C90.8884 18.8113 91.7593 20.5102 91.009 24.1508L86.5605 47.963Z" fill="url(#paint3_linear_2199_51383)"/>
<path d="M27.0823 18.8113C28.449 20.4428 30.0703 22.4519 29.2529 27.3464L27.1359 38.8076L27.511 48.0169C27.578 51.3339 29.1993 52.7766 31.9327 52.7766H38.9002C41.0708 52.7766 42.0088 51.0777 42.8797 48.9608L48.1857 35.8681L48.7484 48.4079C48.8154 51.1721 50.1821 52.8575 52.7279 52.8575H60.6334C62.871 52.8575 63.8089 51.4822 64.8004 49.0417L74.9569 23.962C76.0824 21.3867 75.3856 18.8248 72.6522 18.8248H67.6008C65.725 18.8248 64.4253 19.445 63.6749 21.2653L56.8146 38.0525L56.1983 23.0721C56.0777 19.8765 54.577 18.8113 52.7681 18.8113H47.5961C45.5461 18.8113 44.3536 19.6203 43.7372 21.1979L36.8769 38.1199L36.2606 22.7081C36.1936 19.8226 35.2021 18.8248 32.8974 18.8248H28.4088L27.0823 18.8113Z" fill="url(#paint4_linear_2199_51383)"/>
<path d="M229.782 18.9973H142.756C138.039 18.9973 133.979 22.3413 133.055 26.9931L129.303 45.7759C128.579 49.3895 131.326 52.7604 134.998 52.7604H225.307C228.804 52.7604 231.832 50.2794 232.516 46.8141L236.441 27.1684C237.286 22.948 234.07 18.9973 229.782 18.9973Z" fill="url(#paint5_linear_2199_51383)"/>
<path d="M141.108 42.4774L143.118 31.0837H147.419C149.751 31.0837 151.117 32.4186 151.117 34.5221C151.117 34.8322 151.091 35.1558 151.024 35.4659C150.649 37.5289 149.108 38.9852 146.321 38.9852H144.458L143.842 42.464H141.108V42.4774ZM145.49 33.1333L144.847 36.7873H146.2C147.486 36.7873 148.143 36.0997 148.317 35.2097C148.357 35.0479 148.384 34.8322 148.384 34.6569C148.384 33.6052 147.661 33.1333 146.749 33.1333H145.49ZM155.928 31.0837H159.277L160.939 42.4774H158.018L157.75 39.8751H154.306L153.114 42.4774H150.314L155.928 31.0837ZM157.067 33.5647L155.137 37.8525H157.603L157.214 33.5647C157.227 33.5647 157.067 33.5647 157.067 33.5647ZM162.44 42.4774L164.45 31.0837H168.978C171.31 31.0837 172.69 32.2838 172.69 34.3468C172.69 34.5221 172.677 34.7378 172.663 34.8726C172.502 36.4772 171.551 37.6638 170.117 38.1761L171.591 42.464H168.737L167.478 38.5132C167.424 38.5267 167.116 38.5267 167.036 38.5267H165.856L165.173 42.4774H162.44ZM166.808 33.2142L166.218 36.5042H167.759C169.072 36.5042 169.756 35.8704 169.89 34.9266C169.916 34.8187 169.916 34.6839 169.916 34.549C169.916 33.5917 169.206 33.2007 168.308 33.2007L166.808 33.2142Z" fill="#181B21"/>
<path d="M175.383 42.4774L177.004 33.3625H173.976L174.365 31.0837H183.141L182.752 33.3625H179.724L178.13 42.4774H175.383Z" fill="#181B21"/>
<path d="M189.934 42.4774L186.584 35.6682H186.464L185.271 42.4774H182.699L184.709 31.0837H186.893L190.202 37.8391H190.309L191.502 31.0837H194.074L192.078 42.4774H189.934Z" fill="#181B21"/>
<path d="M202.194 42.4774H194.61L196.62 31.0837H204.164L203.789 33.322H198.965L198.523 35.7221H203.079L202.73 37.7447H198.175L197.732 40.2392H202.583L202.194 42.4774Z" fill="#181B21"/>
<path d="M204.392 42.4775L206.388 31.0838H210.93C213.262 31.0838 214.642 32.2838 214.642 34.3468C214.642 34.5221 214.628 34.7379 214.615 34.8727C214.454 36.4773 213.503 37.6638 212.069 38.1762L213.543 42.4775H210.689L209.43 38.5268C209.376 38.5403 209.068 38.5403 208.987 38.5403H207.822L207.138 42.491H204.392V42.4775ZM208.773 33.2142L208.184 36.5042H209.724C211.038 36.5042 211.721 35.8705 211.855 34.9266C211.882 34.8188 211.882 34.6839 211.882 34.5491C211.882 33.5918 211.171 33.2007 210.274 33.2007L208.773 33.2142ZM217.925 39.0122C217.911 39.0526 217.898 39.1201 217.898 39.174C217.898 39.9965 218.769 40.5898 219.881 40.5898C220.765 40.5898 221.676 40.1987 221.676 39.3493C221.676 38.6077 220.966 38.338 220.068 38.0548L219.064 37.7178C217.63 37.2593 216.344 36.4233 216.344 34.5761C216.344 32.2029 218.327 30.895 220.792 30.895C223.311 30.895 224.999 32.3108 224.999 34.1446C224.999 34.2659 224.972 34.4143 224.972 34.4547H222.52C222.534 34.4277 222.534 34.3873 222.534 34.3199C222.534 33.4434 221.676 32.9985 220.792 32.9985C219.894 32.9985 219.157 33.4569 219.157 34.1985C219.157 34.8592 219.8 35.2368 220.752 35.5604L221.837 35.8975C223.15 36.3289 224.463 37.0166 224.463 38.9313C224.463 41.3583 222.4 42.6932 219.774 42.6932C217.496 42.6932 215.325 41.6145 215.325 39.3897C215.325 39.2414 215.339 39.147 215.352 39.0257H217.925V39.0122Z" fill="#181B21"/>
<defs>
<linearGradient id="paint0_linear_2199_51383" x1="14.6955" y1="57.547" x2="14.6955" y2="18.0155" gradientUnits="userSpaceOnUse">
<stop stop-color="#0167CA"/>
<stop offset="1" stop-color="#38A8FA"/>
</linearGradient>
<linearGradient id="paint1_linear_2199_51383" x1="109.215" y1="53.7438" x2="109.215" y2="17.9639" gradientUnits="userSpaceOnUse">
<stop stop-color="#C8C7C7"/>
<stop offset="0.0762789" stop-color="#D6D5D5"/>
<stop offset="0.216" stop-color="#E8E8E8"/>
<stop offset="0.3802" stop-color="#F5F5F5"/>
<stop offset="0.5898" stop-color="#FDFDFD"/>
<stop offset="1" stop-color="white"/>
</linearGradient>
<linearGradient id="paint2_linear_2199_51383" x1="86.1792" y1="18.7122" x2="86.1792" y2="1.1437" gradientUnits="userSpaceOnUse">
<stop stop-color="#0167CA"/>
<stop offset="1" stop-color="#38A8FA"/>
</linearGradient>
<linearGradient id="paint3_linear_2199_51383" x1="82.4893" y1="53.8065" x2="82.4893" y2="18.0398" gradientUnits="userSpaceOnUse">
<stop stop-color="#C8C7C7"/>
<stop offset="0.0762789" stop-color="#D6D5D5"/>
<stop offset="0.216" stop-color="#E8E8E8"/>
<stop offset="0.3802" stop-color="#F5F5F5"/>
<stop offset="0.5898" stop-color="#FDFDFD"/>
<stop offset="1" stop-color="white"/>
</linearGradient>
<linearGradient id="paint4_linear_2199_51383" x1="51.2714" y1="53.7422" x2="51.2714" y2="18.04" gradientUnits="userSpaceOnUse">
<stop stop-color="#C8C7C7"/>
<stop offset="0.0762789" stop-color="#D6D5D5"/>
<stop offset="0.216" stop-color="#E8E8E8"/>
<stop offset="0.3802" stop-color="#F5F5F5"/>
<stop offset="0.5898" stop-color="#FDFDFD"/>
<stop offset="1" stop-color="white"/>
</linearGradient>
<linearGradient id="paint5_linear_2199_51383" x1="182.934" y1="53.8141" x2="182.826" y2="18.0995" gradientUnits="userSpaceOnUse">
<stop stop-color="#C8C7C7"/>
<stop offset="0.0762789" stop-color="#D6D5D5"/>
<stop offset="0.216" stop-color="#E8E8E8"/>
<stop offset="0.3802" stop-color="#F5F5F5"/>
<stop offset="0.5898" stop-color="#FDFDFD"/>
<stop offset="1" stop-color="white"/>
</linearGradient>
</defs>
</svg>
