<svg width="85" height="86" viewBox="0 0 85 86" fill="none" xmlns="http://www.w3.org/2000/svg">
<path d="M23.4824 29.8064C24.6759 25.6294 29.0766 20.4826 30.9413 18.6179C32.8061 16.7531 37.9528 12.3523 42.1298 11.1589M23.4824 29.8064L30.9414 37.2654L38.4004 44.7244M23.4824 29.8064C22.8608 29.4335 20.7226 29.5827 17.1423 33.163C13.5619 36.7433 14.1587 39.1302 14.1587 39.1302L21.6176 46.5892L29.0766 54.0481C29.0766 54.0481 31.4635 54.6449 35.0438 51.0645C38.6241 47.4842 38.7733 45.346 38.4004 44.7244M38.4004 44.7244C41.4369 43.8568 44.7889 41.4913 47.2526 39.4045M42.1298 11.1589L49.5888 18.6178L57.0478 26.0768M42.1298 11.1589C41.7569 10.5373 41.9061 8.39904 45.4864 4.81872C49.0667 1.2384 51.4536 1.83512 51.4536 1.83512L58.9126 9.2941L66.3715 16.7531C66.3715 16.7531 66.9683 19.14 63.3879 22.7203C59.8076 26.3006 57.6694 26.4498 57.0478 26.0768M57.0478 26.0768C55.8543 30.2539 51.4536 35.4006 49.5888 37.2654C48.9779 37.8763 48.1779 38.6208 47.2526 39.4045M47.2526 39.4045L72.664 68.663C74.9074 71.246 78.8704 71.3853 81.2896 68.9661V68.9661V68.9661C83.7087 66.5469 83.5695 62.5839 80.9865 60.3405L51.728 34.9291M52.3786 70.1187L52.3786 83.8319L2.27266 83.8319V70.1187H52.3786Z" stroke="black" stroke-width="3" stroke-linejoin="bevel"/>
</svg>
