<svg width="911" height="300" viewBox="0 0 911 300" fill="none" xmlns="http://www.w3.org/2000/svg">
<path d="M671 0H711V20H671V0Z" fill="white"/>
<path d="M671 80H711V100H671V80Z" fill="white"/>
<path d="M671 20H711V40H671V20Z" fill="white"/>
<path d="M671 40H711V60H671V40Z" fill="white"/>
<path d="M671 60H711V80H671V60Z" fill="white"/>
<path d="M631 20H671V40H631V20Z" fill="white"/>
<path d="M631 40H671V60H631V40Z" fill="white"/>
<path d="M631 60H671V80H631V60Z" fill="white"/>
<path d="M591 40H631V60H591V40Z" fill="white"/>
<path d="M711 20H751V40H711V20Z" fill="white"/>
<path d="M711 40H751V60H711V40Z" fill="white"/>
<path d="M711 60H751V80H711V60Z" fill="white"/>
<path d="M751 40H791V60H751V40Z" fill="white"/>
<path d="M191 0H231V20H191V0Z" fill="white"/>
<path d="M191 80H231V100H191V80Z" fill="white"/>
<path d="M191 20H231V40H191V20Z" fill="white"/>
<path d="M191 40H231V60H191V40Z" fill="white"/>
<path d="M191 60H231V80H191V60Z" fill="white"/>
<path d="M151 20H191V40H151V20Z" fill="white"/>
<path d="M151 40H191V60H151V40Z" fill="white"/>
<path d="M151 60H191V80H151V60Z" fill="white"/>
<path d="M111 40H151V60H111V40Z" fill="white"/>
<path d="M231 20H271V40H231V20Z" fill="white"/>
<path d="M231 40H271V60H231V40Z" fill="white"/>
<path d="M231 60H271V80H231V60Z" fill="white"/>
<path d="M271 40H311V60H271V40Z" fill="white"/>
<path d="M431 0H471V20H431V0Z" fill="white"/>
<path d="M431 80H471V100H431V80Z" fill="white"/>
<path d="M431 20H471V40H431V20Z" fill="white"/>
<path d="M431 40H471V60H431V40Z" fill="white"/>
<path d="M431 60H471V80H431V60Z" fill="white"/>
<path d="M391 20H431V40H391V20Z" fill="white"/>
<path d="M391 40H431V60H391V40Z" fill="white"/>
<path d="M391 60H431V80H391V60Z" fill="white"/>
<path d="M351 40H391V60H351V40Z" fill="white"/>
<path d="M471 20H511V40H471V20Z" fill="white"/>
<path d="M471 40H511V60H471V40Z" fill="white"/>
<path d="M471 60H511V80H471V60Z" fill="white"/>
<path d="M511 40H551V60H511V40Z" fill="white"/>
<path d="M-49 0H-9V20H-49V0Z" fill="white"/>
<path d="M-49 80H-9V100H-49V80Z" fill="white"/>
<path d="M-49 20H-9V40H-49V20Z" fill="white"/>
<path d="M-49 40H-9V60H-49V40Z" fill="white"/>
<path d="M-49 60H-9V80H-49V60Z" fill="white"/>
<path d="M-89 20H-49V40H-89V20Z" fill="white"/>
<path d="M-89 40H-49V60H-89V40Z" fill="white"/>
<path d="M-89 60H-49V80H-89V60Z" fill="white"/>
<path d="M-129 40H-89V60H-129V40Z" fill="white"/>
<path d="M-9 20H31V40H-9V20Z" fill="white"/>
<path d="M-9 40H31V60H-9V40Z" fill="white"/>
<path d="M-9 60H31V80H-9V60Z" fill="white"/>
<path d="M31 40H71V60H31V40Z" fill="white"/>
<path d="M671 200H711V220H671V200Z" fill="white"/>
<path d="M671 280H711V300H671V280Z" fill="white"/>
<path d="M671 220H711V240H671V220Z" fill="white"/>
<path d="M671 240H711V260H671V240Z" fill="white"/>
<path d="M671 260H711V280H671V260Z" fill="white"/>
<path d="M631 220H671V240H631V220Z" fill="white"/>
<path d="M631 240H671V260H631V240Z" fill="white"/>
<path d="M631 260H671V280H631V260Z" fill="white"/>
<path d="M591 240H631V260H591V240Z" fill="white"/>
<path d="M711 220H751V240H711V220Z" fill="white"/>
<path d="M711 240H751V260H711V240Z" fill="white"/>
<path d="M711 260H751V280H711V260Z" fill="white"/>
<path d="M751 240H791V260H751V240Z" fill="white"/>
<path d="M191 200H231V220H191V200Z" fill="white"/>
<path d="M191 280H231V300H191V280Z" fill="white"/>
<path d="M191 220H231V240H191V220Z" fill="white"/>
<path d="M191 240H231V260H191V240Z" fill="white"/>
<path d="M191 260H231V280H191V260Z" fill="white"/>
<path d="M151 220H191V240H151V220Z" fill="white"/>
<path d="M151 240H191V260H151V240Z" fill="white"/>
<path d="M151 260H191V280H151V260Z" fill="white"/>
<path d="M111 240H151V260H111V240Z" fill="white"/>
<path d="M231 220H271V240H231V220Z" fill="white"/>
<path d="M231 240H271V260H231V240Z" fill="white"/>
<path d="M231 260H271V280H231V260Z" fill="white"/>
<path d="M271 240H311V260H271V240Z" fill="white"/>
<path d="M431 200H471V220H431V200Z" fill="white"/>
<path d="M431 280H471V300H431V280Z" fill="white"/>
<path d="M431 220H471V240H431V220Z" fill="white"/>
<path d="M431 240H471V260H431V240Z" fill="white"/>
<path d="M431 260H471V280H431V260Z" fill="white"/>
<path d="M391 220H431V240H391V220Z" fill="white"/>
<path d="M391 240H431V260H391V240Z" fill="white"/>
<path d="M391 260H431V280H391V260Z" fill="white"/>
<path d="M351 240H391V260H351V240Z" fill="white"/>
<path d="M471 220H511V240H471V220Z" fill="white"/>
<path d="M471 240H511V260H471V240Z" fill="white"/>
<path d="M471 260H511V280H471V260Z" fill="white"/>
<path d="M511 240H551V260H511V240Z" fill="white"/>
<path d="M-49 200H-9V220H-49V200Z" fill="white"/>
<path d="M-49 280H-9V300H-49V280Z" fill="white"/>
<path d="M-49 220H-9V240H-49V220Z" fill="white"/>
<path d="M-49 240H-9V260H-49V240Z" fill="white"/>
<path d="M-49 260H-9V280H-49V260Z" fill="white"/>
<path d="M-89 220H-49V240H-89V220Z" fill="white"/>
<path d="M-89 240H-49V260H-89V240Z" fill="white"/>
<path d="M-89 260H-49V280H-89V260Z" fill="white"/>
<path d="M-129 240H-89V260H-129V240Z" fill="white"/>
<path d="M-9 220H31V240H-9V220Z" fill="white"/>
<path d="M-9 240H31V260H-9V240Z" fill="white"/>
<path d="M-9 260H31V280H-9V260Z" fill="white"/>
<path d="M31 240H71V260H31V240Z" fill="white"/>
<path d="M791 100H831V120H791V100Z" fill="white"/>
<path d="M791 180H831V200H791V180Z" fill="white"/>
<path d="M791 120H831V140H791V120Z" fill="white"/>
<path d="M791 140H831V160H791V140Z" fill="white"/>
<path d="M791 160H831V180H791V160Z" fill="white"/>
<path d="M751 120H791V140H751V120Z" fill="white"/>
<path d="M751 140H791V160H751V140Z" fill="white"/>
<path d="M751 160H791V180H751V160Z" fill="white"/>
<path d="M711 140H751V160H711V140Z" fill="white"/>
<path d="M831 120H871V140H831V120Z" fill="white"/>
<path d="M831 140H871V160H831V140Z" fill="white"/>
<path d="M831 160H871V180H831V160Z" fill="white"/>
<path d="M871 140H911V160H871V140Z" fill="white"/>
<path d="M551 100H591V120H551V100Z" fill="white"/>
<path d="M551 180H591V200H551V180Z" fill="white"/>
<path d="M551 120H591V140H551V120Z" fill="white"/>
<path d="M551 140H591V160H551V140Z" fill="white"/>
<path d="M551 160H591V180H551V160Z" fill="white"/>
<path d="M511 120H551V140H511V120Z" fill="white"/>
<path d="M511 140H551V160H511V140Z" fill="white"/>
<path d="M511 160H551V180H511V160Z" fill="white"/>
<path d="M471 140H511V160H471V140Z" fill="white"/>
<path d="M591 120H631V140H591V120Z" fill="white"/>
<path d="M591 140H631V160H591V140Z" fill="white"/>
<path d="M591 160H631V180H591V160Z" fill="white"/>
<path d="M631 140H671V160H631V140Z" fill="white"/>
<path d="M71 100H111V120H71V100Z" fill="white"/>
<path d="M71 180H111V200H71V180Z" fill="white"/>
<path d="M71 120H111V140H71V120Z" fill="white"/>
<path d="M71 140H111V160H71V140Z" fill="white"/>
<path d="M71 160H111V180H71V160Z" fill="white"/>
<path d="M31 120H71V140H31V120Z" fill="white"/>
<path d="M31 140H71V160H31V140Z" fill="white"/>
<path d="M31 160H71V180H31V160Z" fill="white"/>
<path d="M-9 140H31V160H-9V140Z" fill="white"/>
<path d="M111 120H151V140H111V120Z" fill="white"/>
<path d="M111 140H151V160H111V140Z" fill="white"/>
<path d="M111 160H151V180H111V160Z" fill="white"/>
<path d="M151 140H191V160H151V140Z" fill="white"/>
<path d="M311 100H351V120H311V100Z" fill="white"/>
<path d="M311 180H351V200H311V180Z" fill="white"/>
<path d="M311 120H351V140H311V120Z" fill="white"/>
<path d="M311 140H351V160H311V140Z" fill="white"/>
<path d="M311 160H351V180H311V160Z" fill="white"/>
<path d="M271 120H311V140H271V120Z" fill="white"/>
<path d="M271 140H311V160H271V140Z" fill="white"/>
<path d="M271 160H311V180H271V160Z" fill="white"/>
<path d="M231 140H271V160H231V140Z" fill="white"/>
<path d="M351 120H391V140H351V120Z" fill="white"/>
<path d="M351 140H391V160H351V140Z" fill="white"/>
<path d="M351 160H391V180H351V160Z" fill="white"/>
<path d="M391 140H431V160H391V140Z" fill="white"/>
</svg>
