<svg width="100" height="109" viewBox="0 0 100 109" fill="none" xmlns="http://www.w3.org/2000/svg">
<path d="M50 28.8771H40.9333M50 28.8771C50 16.4852 35.6 -5.60502 24.9333 4.63177C16.1404 13.0703 28.8444 24.926 35.6 28.8771M50 28.8771L59.0667 28.8761M50 28.8771C50 16.4852 64.4 -5.60597 75.0667 4.63082C83.8596 13.0694 71.1556 24.9251 64.4 28.8761M7.86667 46.118H2V28.8771H35.6M7.86667 46.118V107H44.6667M7.86667 46.118H40.9333M44.6667 107H50L55.3333 106.999M44.6667 107V46.118M44.6667 46.118H50L55.3333 46.1171M44.6667 46.118H40.9333M40.9333 28.8771V46.118M40.9333 28.8771H35.6M92.1333 46.1171H98V28.8761H64.4M92.1333 46.1171V106.999H55.3333M92.1333 46.1171H59.0667M55.3333 106.999V46.1171M55.3333 46.1171H59.0667M59.0667 28.8761V46.1171M59.0667 28.8761H64.4M43.6 24.5668C42.0328 18.281 35.2443 5.14841 29.7333 10.0198C25.4667 13.7912 36.6339 21.1545 43.6 24.5668ZM56.4 24.5658C57.9672 18.2801 64.7557 5.14746 70.2667 10.0188C74.5333 13.7903 63.3661 21.1536 56.4 24.5658Z" stroke="black" stroke-width="3"/>
</svg>
