<svg width="70" height="70" viewBox="0 0 70 70" fill="none" xmlns="http://www.w3.org/2000/svg">
<path d="M35.7981 52.3889C35.7981 43.2148 43.2306 35.7778 52.3991 35.7778C57.5677 35.7778 62.1847 38.1413 65.2294 41.8472M35.7981 52.3889C35.7981 55.5473 36.6791 58.4998 38.2085 61.0139C41.1215 65.8023 46.3871 69 52.3991 69C61.5675 69 69 61.563 69 52.3889C69 48.3867 67.5855 44.715 65.2294 41.8472M35.7981 52.3889H1V17.8889M52.3991 42.4861V52.3889L58.1455 58.1389M65.2294 41.8472V17.8889M1 17.8889V5.11111H65.2294V17.8889M1 17.8889H65.2294M52.3991 10.8611V0M32.9249 10.8611V0M13.77 10.8611V0M13.77 25.5556V29.7083H21.1127V25.5556H13.77ZM29.4131 25.5556V29.7083H36.7559V25.5556H29.4131ZM45.0563 25.5556V29.7083H52.3991V25.5556H45.0563ZM13.77 33.8611V38.0139H21.1127V33.8611H13.77ZM29.4131 33.8611V38.0139H36.7559V33.8611H29.4131ZM13.77 42.1667V46.3194H21.1127V42.1667H13.77Z" stroke="black" stroke-width="2"/>
</svg>
