<svg width="33" height="30" viewBox="0 0 33 30" fill="none" xmlns="http://www.w3.org/2000/svg">
<path d="M19.2833 15L18.9372 15.5698L19.2833 15.78L19.6293 15.5698L19.2833 15ZM19.2833 4.42222L18.6454 4.61611C18.7308 4.89693 18.9898 5.08889 19.2833 5.08889C19.5768 5.08889 19.8358 4.89693 19.9211 4.61611L19.2833 4.42222ZM1 15V14.3333H0.333333V15H1ZM1 26.5111H0.333333V27.1778H1V26.5111ZM16.7614 18.7333L16.4664 19.3312L16.6059 19.4H16.7614V18.7333ZM22.1203 22.2359L21.8185 21.6414L22.1203 22.2359ZM29.6858 19.6667L29.9002 20.2979L29.9091 20.2949L29.9179 20.2916L29.6858 19.6667ZM30.9467 23.0889L31.2145 23.6994L31.2208 23.6966L30.9467 23.0889ZM19.5985 28.0667L19.8582 28.6807L19.8663 28.6772L19.5985 28.0667ZM19.6293 14.4302C18.2968 13.6209 16.292 12.1895 14.6298 10.544C13.799 9.72155 13.0702 8.86157 12.5527 8.01421C12.0319 7.16143 11.754 6.36849 11.754 5.66667H10.4207C10.4207 6.70707 10.8257 7.74449 11.4148 8.70912C12.0072 9.67917 12.8151 10.6236 13.6918 11.4916C15.4446 13.2268 17.5377 14.7198 18.9372 15.5698L19.6293 14.4302ZM11.754 5.66667C11.754 3.69957 12.5192 2.74853 13.2663 2.25693C14.0613 1.73388 14.9389 1.66667 15.1853 1.66667V0.333333C14.8012 0.333333 13.6299 0.421671 12.5335 1.14307C11.3892 1.89592 10.4207 3.27821 10.4207 5.66667H11.754ZM15.1853 1.66667C15.671 1.66667 17.8217 1.90609 18.6454 4.61611L19.9211 4.22833C18.8535 0.716131 15.9605 0.333333 15.1853 0.333333V1.66667ZM19.6293 15.5698C21.0288 14.7198 23.122 13.2268 24.8748 11.4916C25.7515 10.6236 26.5594 9.67917 27.1517 8.70912C27.7408 7.74449 28.1459 6.70707 28.1459 5.66667H26.8125C26.8125 6.36849 26.5346 7.16143 26.0138 8.01421C25.4963 8.86157 24.7675 9.72155 23.9367 10.544C22.2745 12.1895 20.2697 13.6209 18.9372 14.4302L19.6293 15.5698ZM28.1459 5.66667C28.1459 3.27821 27.1773 1.89592 26.0331 1.14307C24.9367 0.421671 23.7653 0.333333 23.3812 0.333333V1.66667C23.6276 1.66667 24.5053 1.73388 25.3002 2.25693C26.0474 2.74853 26.8125 3.69957 26.8125 5.66667H28.1459ZM23.3812 0.333333C22.606 0.333333 19.713 0.716131 18.6454 4.22833L19.9211 4.61611C20.7449 1.90609 22.8955 1.66667 23.3812 1.66667V0.333333ZM0.333333 15V26.5111H1.66667V15H0.333333ZM1 27.1778H4.79921V25.8444H1V27.1778ZM4.79922 14.3333H1V15.6667H4.79922V14.3333ZM6.04366 16.9111H10.4735V15.5778H6.04366V16.9111ZM12.5386 17.3929L16.4664 19.3312L17.0565 18.1355L13.1286 16.1972L12.5386 17.3929ZM16.7614 19.4H21.1746V18.0667H16.7614V19.4ZM21.1746 19.4C21.3849 19.4 21.7139 19.4677 21.9706 19.6501C22.1929 19.8081 22.3993 20.0743 22.3993 20.6H23.7327C23.7327 19.6323 23.3087 18.9653 22.7429 18.5632C22.2115 18.1856 21.5948 18.0667 21.1746 18.0667V19.4ZM21.1746 21.8H14.8701V23.1333H21.1746V21.8ZM22.3993 20.6C22.3993 20.9283 22.3184 21.1448 22.2217 21.2922C22.1226 21.4435 21.9832 21.5578 21.8185 21.6414L22.4222 22.8303C23.114 22.479 23.7327 21.7728 23.7327 20.6H22.3993ZM21.8185 21.6414C21.5886 21.7582 21.3377 21.8 21.1746 21.8V23.1333C21.5197 23.1333 21.9819 23.0539 22.4222 22.8303L21.8185 21.6414ZM22.3347 22.8671L29.9002 20.2979L29.4714 19.0354L21.906 21.6046L22.3347 22.8671ZM29.9179 20.2916C30.149 20.2058 30.5247 20.1399 30.8616 20.2081C31.1588 20.2684 31.4263 20.4264 31.5856 20.8397L32.8297 20.3603C32.4846 19.4649 31.8064 19.0392 31.1264 18.9014C30.4861 18.7716 29.8531 18.8934 29.4537 19.0417L29.9179 20.2916ZM31.5856 20.8397C31.7433 21.249 31.6538 21.5676 31.4586 21.8434C31.2438 22.1469 30.9082 22.375 30.6726 22.4812L31.2208 23.6966C31.6158 23.5185 32.1628 23.1564 32.5469 22.6137C32.9506 22.0433 33.1764 21.2597 32.8297 20.3603L31.5856 20.8397ZM30.6789 22.4784L19.3307 27.4562L19.8663 28.6772L31.2145 23.6994L30.6789 22.4784ZM19.3388 27.4527C18.9907 27.5999 18.3989 27.8247 17.7758 28.0114C17.1358 28.2032 16.5318 28.3333 16.131 28.3333V29.6667C16.7388 29.6667 17.5008 29.4857 18.1586 29.2886C18.8332 29.0864 19.4707 28.8446 19.8582 28.6807L19.3388 27.4527ZM16.131 28.3333C15.01 28.3333 14.1686 28.066 12.9585 27.4688L12.3684 28.6645C13.6801 29.3118 14.7302 29.6667 16.131 29.6667V28.3333ZM12.9585 27.4688C12.2146 27.1017 10.5407 26.095 9.26268 25.3071L8.56299 26.4421C9.82253 27.2186 11.556 28.2636 12.3684 28.6645L12.9585 27.4688ZM6.71033 25.2667V16.2444H5.37699V25.2667H6.71033ZM6.7831 24.6H6.04366V25.9333H6.7831V24.6ZM10.4735 16.9111C11.1897 16.9111 11.8963 17.076 12.5386 17.3929L13.1286 16.1972C12.3028 15.7897 11.3943 15.5778 10.4735 15.5778V16.9111ZM9.26268 25.3071C8.51899 24.8487 7.66185 24.6 6.7831 24.6V25.9333C7.40967 25.9333 8.02528 26.1107 8.56299 26.4421L9.26268 25.3071ZM4.79922 15.6667C5.11831 15.6667 5.37699 15.9253 5.37699 16.2444H6.71033C6.71033 15.189 5.85469 14.3333 4.79922 14.3333V15.6667ZM4.79921 27.1778C5.85469 27.1778 6.71033 26.3221 6.71033 25.2667H5.37699C5.37699 25.5858 5.11831 25.8444 4.79921 25.8444V27.1778Z" fill="black"/>
</svg>
