<svg width="57" height="83" viewBox="0 0 57 83" fill="none" xmlns="http://www.w3.org/2000/svg">
<path d="M27.7945 43.5L23.8481 41.2637C17.2288 37.5128 13.7062 29.9855 15.0672 22.5V22.5M27.7945 43.5L31.7409 41.2637C38.3602 37.5128 41.8828 29.9854 40.5218 22.5V22.5M27.7945 43.5V71.5M27.7945 71.5C27.1278 74.1667 23.9945 79.9 16.7945 81.5H27.7945H38.7945C31.5945 79.9 28.4612 74.1667 27.7945 71.5ZM15.0672 22.5L18.7945 2.00004H27.7945L36.7945 2L40.5218 22.5M15.0672 22.5H40.5218M8 33.3647L8.92364 35.1511C9.87488 36.9909 11.3739 38.4899 13.2136 39.4411L15 40.3647L13.2136 41.2884C11.3739 42.2396 9.87488 43.7386 8.92364 45.5784L8 47.3647L7.07636 45.5784C6.12512 43.7386 4.62612 42.2396 2.78637 41.2884L1 40.3647L2.78637 39.4411C4.62612 38.4899 6.12512 36.9909 7.07636 35.1511L8 33.3647ZM50.7945 12L51.2069 12.7976C52.1581 14.6374 53.6571 16.1364 55.4969 17.0876L56.2945 17.5L55.4969 17.9124C53.6571 18.8636 52.1581 20.3626 51.2069 22.2024L50.7945 23L50.3821 22.2024C49.4309 20.3626 47.9319 18.8636 46.0921 17.9124L45.2945 17.5L46.0921 17.0876C47.9319 16.1364 49.4309 14.6374 50.3821 12.7976L50.7945 12Z" stroke="black" stroke-width="3" stroke-linejoin="bevel"/>
</svg>
