<svg width="84" height="86" viewBox="0 0 84 86" fill="none" xmlns="http://www.w3.org/2000/svg">
<path d="M19.1429 44.1389C19.1429 31.5591 29.3763 21.3611 42 21.3611M11.1429 44.1389C11.1429 27.1561 24.9581 13.3889 42 13.3889M75.1429 11.1111C77.6676 11.1111 79.7143 9.07152 79.7143 6.55556C79.7143 4.03959 77.6676 2 75.1429 2C72.6181 2 70.5714 4.03959 70.5714 6.55556C70.5714 9.07152 72.6181 11.1111 75.1429 11.1111ZM75.1429 11.1111V44.1389L58 61.2222M58 61.2222L61.4286 64.6389L56.5714 69.4792M58 61.2222L48.2857 70.9028L51.7143 74.3194L56.5714 69.4792M56.5714 69.4792L60.2857 73.1805M56.8571 44.1389C56.8571 52.3158 50.2054 58.9444 42 58.9444C33.7946 58.9444 27.1429 52.3158 27.1429 44.1389C27.1429 35.962 33.7946 29.3333 42 29.3333C50.2054 29.3333 56.8571 35.962 56.8571 44.1389ZM82 44.1389C82 66.1536 64.0914 84 42 84C19.9086 84 2 66.1536 2 44.1389C2 22.1242 19.9086 4.27778 42 4.27778C64.0914 4.27778 82 22.1242 82 44.1389Z" stroke="black" stroke-width="3"/>
</svg>
