<svg width="30" height="30" viewBox="0 0 30 30" fill="none" xmlns="http://www.w3.org/2000/svg">
<path d="M5 16.6667C5 12.4325 8.43248 9 12.6667 9M26.3333 5H28.3333V1H24.3333V5H26.3333ZM26.3333 5V10.6667L19.6667 18.3333M12.3333 16.6667H13M24.3333 16.6667C24.3333 23.11 19.11 28.3333 12.6667 28.3333C6.22334 28.3333 1 23.11 1 16.6667C1 10.2233 6.22334 5 12.6667 5C19.11 5 24.3333 10.2233 24.3333 16.6667ZM16.3333 16.6667C16.3333 18.6917 14.6917 20.3333 12.6667 20.3333C10.6416 20.3333 9 18.6917 9 16.6667C9 14.6416 10.6416 13 12.6667 13C14.6917 13 16.3333 14.6416 16.3333 16.6667Z" stroke="black" stroke-width="1.6"/>
</svg>
