<svg width="21" height="34" viewBox="0 0 21 34" fill="none" xmlns="http://www.w3.org/2000/svg">
<path d="M12.2328 25.5106H11.9545C8.41239 25.5106 5.54096 22.6392 5.54096 19.0971V19.0971C5.54096 18.1621 5.72498 17.2362 6.08253 16.3722L6.66636 14.9614C7.73944 12.3684 7.61464 9.43422 6.32528 6.94171V6.94171C6.28883 6.87126 6.33997 6.78723 6.41929 6.78723H10.824M12.2328 25.5106H12.5111C16.0532 25.5106 18.9246 22.6392 18.9246 19.0971V19.0971C18.9246 18.1621 18.7406 17.2362 18.383 16.3722L17.7992 14.9614C16.7261 12.3684 16.8509 9.43422 18.1403 6.94171V6.94171C18.1767 6.87126 18.1256 6.78723 18.0463 6.78723H12.2328H10.824M12.2328 25.5106V30.617M12.2328 30.617L6.94977 33H12.2328H17.5158L12.2328 30.617ZM17.1636 10.8723H13.6416M7.30197 10.8723H13.6416M10.824 6.78723V6.78723C10.824 4.34308 8.8426 2.3617 6.39845 2.3617H6.24537C3.71667 2.3617 1.66675 4.42017 1.66675 6.94887V6.94887C1.66675 9.48703 3.72433 11.5532 6.26249 11.5532H7.30197M13.6416 10.8723L14.6982 3.38298L20.3334 1" stroke="black" stroke-width="1.6" stroke-linejoin="round"/>
</svg>
