<svg width="99" height="81" viewBox="0 0 99 81" fill="none" xmlns="http://www.w3.org/2000/svg">
<path d="M73.8438 51.6667L89.2812 36.2174L86.3125 33.2464M86.3125 33.2464L83.3438 30.2754L67.7787 45.8523C62.1576 51.4777 59 59.1049 59 67.0574V79H77.4062V72.4442C77.4062 69.7934 78.4588 67.251 80.3325 65.3759L91.1475 54.5526C94.895 50.8023 97 45.7175 97 40.4158V8.18606C97 5.9462 95.1842 4.13043 92.9444 4.13043V4.13043C90.8638 4.13043 89.1207 5.70483 88.9097 7.77467L86.3125 33.2464ZM25.1562 51.6667L9.71875 36.2174L12.6875 33.2464M12.6875 33.2464L15.6562 30.2754L31.2213 45.8523C36.8424 51.4777 40 59.1049 40 67.0574V79H21.5938V72.4442C21.5938 69.7934 20.5412 67.251 18.6675 65.3759L7.85247 54.5526C4.10504 50.8023 2 45.7175 2 40.4158V8.18606C2 5.9462 3.81576 4.13043 6.05562 4.13043V4.13043C8.13619 4.13043 9.87928 5.70483 10.0903 7.77467L12.6875 33.2464ZM49.5 40.971L67.6159 22.8413C72.3682 18.0854 72.3682 10.3784 67.6159 5.62251V5.62251C62.8585 0.861492 55.1414 0.861494 50.3841 5.62251L49.5 6.50725L48.6159 5.62251C43.8586 0.861494 36.1415 0.861492 31.3841 5.62251V5.62251C26.6318 10.3784 26.6318 18.0854 31.3841 22.8413L49.5 40.971Z" stroke="black" stroke-width="3" stroke-linejoin="bevel"/>
</svg>
