<svg width="20" height="21" viewBox="0 0 20 21" fill="none" xmlns="http://www.w3.org/2000/svg">
<path fill-rule="evenodd" clip-rule="evenodd" d="M13.6577 20.644H6.2084C2.77941 20.644 0 17.8646 0 14.4365V6.98531C0 3.55724 2.77941 0.777832 6.2084 0.777832H13.6577C17.0858 0.777832 19.8661 3.55724 19.8661 6.98531V14.4365C19.8661 17.8646 17.0858 20.644 13.6577 20.644ZM18.0033 6.98531C18.0033 4.59028 16.0537 2.6397 13.6577 2.6397H6.2084C3.81153 2.6397 1.86187 4.59028 1.86187 6.98531V14.4365C1.86187 16.8315 3.81153 18.7821 6.2084 18.7821H13.6577C16.0537 18.7821 18.0033 16.8315 18.0033 14.4365V6.98531ZM15.272 6.03358C14.9061 6.03358 14.6104 5.7379 14.6104 5.37292C14.6104 5.00701 14.9061 4.7104 15.272 4.7104C15.6379 4.7104 15.9336 5.00701 15.9336 5.37292C15.9336 5.7379 15.6379 6.03358 15.272 6.03358ZM9.93307 15.6774C7.19062 15.6774 4.96653 13.4534 4.96653 10.7118C4.96653 7.96937 7.19062 5.74529 9.93307 5.74529C12.6755 5.74529 14.8996 7.96937 14.8996 10.7118C14.8996 13.4534 12.6755 15.6774 9.93307 15.6774ZM9.93307 7.60809C8.22181 7.60809 6.82933 8.99964 6.82933 10.7118C6.82933 12.4222 8.22181 13.8156 9.93307 13.8156C11.6443 13.8156 13.0368 12.4222 13.0368 10.7118C13.0368 8.99964 11.6443 7.60809 9.93307 7.60809Z" fill="white"/>
</svg>
