<svg width="31" height="31" viewBox="0 0 31 31" fill="none" xmlns="http://www.w3.org/2000/svg">
<path fill-rule="evenodd" clip-rule="evenodd" d="M21.3727 30.8062H9.82114C4.50385 30.8062 0.193848 26.4962 0.193848 21.1803V9.62586C0.193848 4.31 4.50385 0 9.82114 0H21.3727C26.6886 0 31 4.31 31 9.62586V21.1803C31 26.4962 26.6886 30.8062 21.3727 30.8062ZM28.1114 9.62586C28.1114 5.91192 25.0881 2.88719 21.3727 2.88719H9.82114C6.10434 2.88719 3.08103 5.91192 3.08103 9.62586V21.1803C3.08103 24.8943 6.10434 27.919 9.82114 27.919H21.3727C25.0881 27.919 28.1114 24.8943 28.1114 21.1803V9.62586ZM23.8759 8.15003C23.3085 8.15003 22.85 7.69152 22.85 7.12554C22.85 6.55814 23.3085 6.09819 23.8759 6.09819C24.4433 6.09819 24.9018 6.55814 24.9018 7.12554C24.9018 7.69152 24.4433 8.15003 23.8759 8.15003ZM15.5969 23.1046C11.3443 23.1046 7.8954 19.6558 7.8954 15.4045C7.8954 11.1518 11.3443 7.70298 15.5969 7.70298C19.8496 7.70298 23.2985 11.1518 23.2985 15.4045C23.2985 19.6558 19.8496 23.1046 15.5969 23.1046ZM15.5969 10.5916C12.9433 10.5916 10.784 12.7495 10.784 15.4045C10.784 18.0567 12.9433 20.2175 15.5969 20.2175C18.2506 20.2175 20.4099 18.0567 20.4099 15.4045C20.4099 12.7495 18.2506 10.5916 15.5969 10.5916Z" fill="black"/>
</svg>
