<svg width="33" height="30" viewBox="0 0 33 30" fill="none" xmlns="http://www.w3.org/2000/svg">
    <path d="M10.04 21.026c-2.96 0-6.147-2.14-8.195-5.526-2.12-3.516-2.437-7.384-.828-10.105C4.172.072 9.38-.96 12.68.773c2.422 1.273 4.454 4.473 2.209 9.315-.699 1.503-.599 3.242-.501 4.924.107 1.854.208 3.605-.853 4.784-.675.751-1.722 1.151-3.201 1.224a7.28 7.28 0 0 1-.295.006zM9.424 1.364c-2.449 0-5.269 1.42-7.229 4.736-1.616 2.724-.636 6.275.822 8.688 1.856 3.08 4.706 4.99 7.256 4.866 1.09-.049 1.826-.312 2.24-.771.68-.757.598-2.163.505-3.792-.103-1.763-.217-3.763.624-5.578 1.844-3.963.378-6.488-1.604-7.53a5.621 5.621 0 0 0-2.614-.62z" fill="#FF57C6"/>
    <path d="M14.808 15.264a8.589 8.589 0 0 1-3.758-.817c-1.752-.841-3.96-2.736-4.524-6.975-.216-1.62.132-2.949 1.015-3.948 2.047-2.31 6.508-2.255 9.46-2.22.34 0 .658.009.956.009.55 0 1.118-.016 1.72-.032 3.504-.096 7.481-.197 8.79 2.866 1.327 3.106-.117 5.1-6.441 8.886-2.466 1.478-4.957 2.23-7.218 2.23zm.963-12.605c-2.591 0-5.804.185-7.205 1.765-.623.708-.847 1.642-.683 2.867.383 2.877 1.684 4.927 3.761 5.921 2.574 1.24 6.19.732 9.678-1.356 6.649-3.982 6.66-5.369 5.886-7.178-.944-2.209-4.274-2.12-7.494-2.035a66.14 66.14 0 0 1-1.756.031c-.3 0-.627 0-.973-.007-.382 0-.785-.006-1.214-.006V2.66z" fill="#10E6D9"/>
    <path d="M20.899 23.512c-1.836 0-3.514-.457-4.864-1.355-1.894-1.26-3.004-3.3-3.21-5.896-.186-2.345.842-4.526 2.898-6.142 3.196-2.518 8.333-3.24 12.783-1.796 2.537.824 3.936 2.568 3.939 4.914 0 1.799-.854 3.905-2.346 5.78-1.46 1.833-3.339 3.225-5.158 3.816a13.041 13.041 0 0 1-4.042.679zm2.858-14.564c-2.715 0-5.33.778-7.193 2.245-1.185.936-2.565 2.558-2.37 4.96.17 2.163 1.072 3.846 2.603 4.868 1.946 1.296 4.758 1.485 7.717.517 3.314-1.081 6.564-5.192 6.56-8.297 0-1.755-1.008-2.97-2.992-3.615a14.088 14.088 0 0 0-4.325-.678z" fill="#ED534B"/>
    <path d="M21.881 29.044c-.303 0-.607-.022-.907-.067a7.56 7.56 0 0 1-3.783-1.8c-.445-.375-.961-.757-1.507-1.163-2.696-2.003-6.052-4.495-5.728-9.143.232-3.329 1.968-6.109 4.644-7.436 2.548-1.265 5.588-1.028 8.13.633 3.014 1.967 5.231 5.838 5.649 9.86.308 2.97-.439 5.526-2.108 7.185-1.518 1.522-3.115 1.931-4.39 1.931zm-3.82-19.058c-.99 0-1.966.23-2.852.672-2.27 1.127-3.688 3.421-3.887 6.308-.272 3.901 2.624 6.052 5.179 7.951.566.421 1.101.818 1.58 1.221l.022.018c1.3 1.185 4.478 2.714 7.204-.01 1.369-1.366 1.976-3.525 1.712-6.078-.371-3.573-2.394-7.132-5.034-8.856a7.173 7.173 0 0 0-3.926-1.226h.003z" fill="#9F72FF"/>
    <path d="M10.763 29.675a8.262 8.262 0 0 1-4.289-1.132c-2.175-1.296-3.652-3.684-3.95-6.4-.256-2.331-.605-5.526 3.555-7.739 3.265-1.737 8.43-1.184 12.09.132 1.212.437 4.108 1.643 4.84 3.42a5.867 5.867 0 0 1-.051 4.587c-1.02 2.43-3.573 4.534-7.386 6.087-1.847.76-3.447 1.045-4.81 1.045zm.628-15c-1.966 0-3.594.372-4.664.942-3.112 1.649-3.145 3.593-2.84 6.379.25 2.287 1.478 4.296 3.292 5.373 2.096 1.248 4.822 1.248 7.884 0 4.382-1.784 6.03-3.894 6.641-5.35a4.524 4.524 0 0 0 .047-3.537c-.358-.871-1.905-1.89-4.038-2.657a18.813 18.813 0 0 0-6.322-1.156v.006z" fill="#FFA800"/>
</svg>
