<svg width="319" height="72" viewBox="0 0 319 72" fill="none" xmlns="http://www.w3.org/2000/svg">
<path d="M23.5495 49.3186C16.6046 49.3186 9.13148 44.2974 4.32752 36.3566C-0.643262 28.1103 -1.3878 19.0369 2.38431 12.6546C9.78642 0.167865 22.0049 -2.25171 29.7437 1.81281C35.425 4.80025 40.1919 12.3059 34.9246 23.6631C33.2872 27.1875 33.522 31.2675 33.7506 35.2116C34.0008 39.5601 34.2387 43.6678 31.7487 46.433C30.1669 48.1953 27.7109 49.1335 24.2415 49.3032C24.0129 49.3125 23.7874 49.3186 23.5495 49.3186ZM22.1037 3.19851C16.3606 3.19851 9.74626 6.5316 5.14929 14.3088C1.35864 20.6972 3.65713 29.0269 7.07705 34.687C11.43 41.9118 18.1153 46.3929 24.0963 46.0997C26.6543 45.9855 28.3782 45.3683 29.3483 44.2912C30.9455 42.5167 30.7539 39.2175 30.5346 35.3968C30.2936 31.2613 30.0248 26.5703 31.9989 22.3144C36.324 13.0188 32.8856 7.09638 28.2361 4.65211C26.3398 3.67901 24.2355 3.1802 22.1037 3.19851Z" fill="#FF57C6"/>
<path d="M34.7329 35.8012C31.6876 35.8366 28.674 35.1813 25.9189 33.8847C21.8101 31.9126 16.6323 27.4685 15.307 17.5247C14.8003 13.7256 15.6159 10.6086 17.6889 8.26614C22.4897 2.84678 32.9534 2.9764 39.8767 3.05664C40.6768 3.05664 41.4213 3.07825 42.1195 3.07825C43.4109 3.07825 44.7424 3.04121 46.1543 3.00418C54.372 2.77888 63.7018 2.54125 66.7727 9.72591C69.8837 17.0124 66.4977 21.688 51.6626 30.5701C45.8793 34.0359 40.0373 35.8012 34.7329 35.8012ZM36.9912 6.23543C30.9144 6.23543 23.3795 6.67058 20.0924 10.3771C18.6311 12.0375 18.1059 14.2287 18.489 17.1019C19.388 23.8484 22.4403 28.6567 27.3122 30.9898C33.3488 33.897 41.8322 32.7057 50.0129 27.8079C65.608 18.4691 65.6327 15.2163 63.8192 10.9727C61.6042 5.79101 53.7943 5.99779 46.2408 6.19839C44.8722 6.23543 43.4603 6.27246 42.1226 6.27246C41.4183 6.27246 40.6521 6.27246 39.8396 6.25394C38.9437 6.25394 37.9983 6.2416 36.9912 6.2416V6.23543Z" fill="#10E6D9"/>
<path d="M49.0197 57.0703C44.7132 57.0703 40.7773 55.9994 37.6107 53.8915C33.1682 50.9349 30.5639 46.1513 30.0819 40.0623C29.6463 34.5627 32.0561 29.4457 36.8785 25.6559C44.3764 19.7489 56.4249 18.0546 66.8639 21.4432C72.814 23.3752 76.0949 27.4675 76.1011 32.9702C76.1011 37.189 74.0992 42.13 70.5989 46.5279C67.1759 50.8269 62.7674 54.0921 58.501 55.4778C55.4445 56.5051 52.2445 57.0426 49.0197 57.0703ZM55.7237 22.9092C49.3565 22.9092 43.221 24.7331 38.8526 28.1742C36.0722 30.3716 32.8346 34.1738 33.2918 39.8092C33.6934 44.8829 35.8065 48.8302 39.3995 51.2281C43.9625 54.268 50.5582 54.7094 57.5 52.441C65.2729 49.9042 72.8943 40.2629 72.8882 32.9794C72.8882 28.8625 70.5217 26.0108 65.8691 24.4986C62.591 23.4433 59.1678 22.9071 55.7237 22.9092Z" fill="#ED534B"/>
<path d="M51.3252 70.0483C50.6127 70.0476 49.9013 69.995 49.1966 69.8909C45.8995 69.3462 42.8237 67.8815 40.3239 65.6659C39.2797 64.7894 38.0687 63.8913 36.7897 62.9408C30.4658 58.2405 22.5941 52.3952 23.3541 41.4948C23.8978 33.6867 27.9696 27.1656 34.2472 24.0516C40.222 21.0858 47.3522 21.6413 53.3178 25.5361C60.3863 30.1499 65.5857 39.2295 66.565 48.664C67.2879 55.6296 65.5362 61.626 61.622 65.5177C58.06 69.0885 54.3157 70.0483 51.3252 70.0483ZM42.366 25.3447C40.0432 25.3442 37.7521 25.8841 35.6744 26.9218C30.3515 29.5636 27.0242 34.9459 26.5577 41.717C25.9182 50.8676 32.7117 55.9135 38.7051 60.3669C40.0335 61.3545 41.2878 62.2865 42.4123 63.2309L42.4618 63.2741C45.5141 66.0517 52.9656 69.6378 59.3606 63.2494C62.5704 60.0459 63.9946 54.9815 63.3768 48.9942C62.5056 40.6121 57.7603 32.264 51.5692 28.2211C48.8467 26.384 45.645 25.384 42.3598 25.3447H42.366Z" fill="#9F72FF"/>
<path d="M25.2455 71.5261C21.7129 71.5746 18.2344 70.6567 15.1865 68.8719C10.0829 65.832 6.61975 60.2306 5.91846 53.8607C5.31913 48.3919 4.50045 40.8986 14.2597 35.7077C21.9183 31.6339 34.0317 32.9301 42.617 36.0163C45.4592 37.0409 52.2527 39.8709 53.9704 44.0404C54.6741 45.7499 55.0262 47.5835 55.0055 49.4319C54.9848 51.2802 54.5918 53.1055 53.8499 54.7989C51.4587 60.496 45.4685 65.4339 36.5248 69.0756C32.1935 70.8594 28.4399 71.5261 25.2455 71.5261ZM26.7191 36.3434C22.1067 36.3434 18.2883 37.2168 15.7797 38.5531C8.47954 42.4201 8.40231 46.9815 9.11595 53.515C9.70293 58.8788 12.5853 63.5914 16.8394 66.119C21.7545 69.0448 28.1495 69.0448 35.3323 66.119C45.6106 61.9342 49.4754 56.9839 50.9088 53.5706C51.4841 52.2656 51.7905 50.8583 51.8096 49.4325C51.8287 48.0067 51.5602 46.5917 51.0201 45.2718C50.1797 43.2287 46.5497 40.84 41.5481 39.0408C36.7977 37.2926 31.7814 36.375 26.7191 36.328V36.3434Z" fill="#FFA800"/>
<path d="M136.372 25.0953V59.6021H126.795V55.6271C124.312 58.6166 120.716 60.1124 116.007 60.1144C112.916 60.1551 109.866 59.405 107.147 57.9356C104.543 56.4884 102.405 54.3303 100.984 51.7138C99.4844 49.0206 98.7357 45.8994 98.7378 42.3503C98.7399 38.8011 99.4885 35.6789 100.984 32.9837C102.406 30.3686 104.544 28.2117 107.147 26.765C109.866 25.2946 112.916 24.5434 116.007 24.583C120.415 24.583 123.86 25.9728 126.344 28.7525V25.0953L136.372 25.0953ZM117.753 51.9051C120.28 51.9051 122.378 51.0503 124.046 49.3405C125.714 47.5875 126.549 45.2575 126.551 42.3503C126.553 39.4431 125.718 37.1336 124.046 35.4218C123.243 34.564 122.266 33.8861 121.182 33.4328C120.097 32.9796 118.928 32.7613 117.753 32.7923C115.187 32.7923 113.068 33.6688 111.398 35.4218C109.73 37.1315 108.895 39.441 108.893 42.3503C108.89 45.2595 109.726 47.5896 111.398 49.3405C113.066 51.0503 115.185 51.9051 117.753 51.9051ZM155.394 25.8669L164.254 25.8669V33.5639H155.662V59.6021H145.647V24.3269C145.647 20.393 146.802 17.2718 149.113 14.9634C151.467 12.6549 154.762 11.4996 158.999 11.4976C160.428 11.4892 161.852 11.6624 163.237 12.0129C164.444 12.2472 165.596 12.7034 166.636 13.3585L164.001 20.608C162.815 19.7848 161.4 19.3581 159.957 19.389C156.915 19.389 155.394 21.0534 155.394 24.3824V25.8669ZM179.03 25.8669H187.891V33.5639H179.299V59.6021H169.296V24.3269C169.296 20.393 170.451 17.2718 172.762 14.9634C175.116 12.6549 178.411 11.4996 182.648 11.4976C184.077 11.4896 185.501 11.6628 186.887 12.0129C188.093 12.2474 189.245 12.7036 190.285 13.3585L187.647 20.608C186.461 19.7854 185.046 19.3587 183.603 19.389C180.563 19.389 179.043 21.0565 179.043 24.3917L179.03 25.8669ZM213.903 24.583C218.185 24.583 221.631 25.8659 224.24 28.4315C226.895 30.9972 228.221 34.8035 228.219 39.8504V59.6021H218.216V41.3935C218.216 38.6571 217.616 36.6264 216.418 35.3014C215.221 33.9311 213.488 33.247 211.218 33.2491C208.693 33.2491 206.682 34.0402 205.185 35.6224C203.688 37.1593 202.938 39.4678 202.936 42.5478V59.6083H192.92V12.0129L202.936 12.0129V28.7031C204.299 27.3558 205.944 26.3262 207.752 25.6879C209.72 24.9414 211.81 24.5667 213.915 24.583H213.903ZM272.1 25.0953V59.6021H262.61V55.4975C261.295 56.9783 259.674 58.1557 257.858 58.9478C255.965 59.7286 253.935 60.1211 251.887 60.1021C247.356 60.1021 243.761 58.7987 241.102 56.1919C238.443 53.5851 237.115 49.715 237.12 44.5816V25.0953H247.148V43.1187C247.148 48.6739 249.48 51.4515 254.145 51.4515C256.542 51.4515 258.469 50.682 259.925 49.143C261.379 47.5608 262.106 45.2297 262.106 42.1497V25.0953H272.1ZM301.795 24.583C304.853 24.5432 307.867 25.3176 310.526 26.8267C313.158 28.2587 315.321 30.4191 316.754 33.0485C318.253 35.7005 319.002 38.8011 319 42.3503C318.998 45.8994 318.249 49.0206 316.754 51.7138C315.296 54.3247 313.139 56.4789 310.526 57.9356C307.854 59.405 304.845 60.1558 301.795 60.1144C297.044 60.1144 293.427 58.6186 290.946 55.6271V59.6021H281.368V12.0129H291.384V28.7525C293.922 25.9728 297.396 24.583 301.808 24.583H301.795ZM300.062 51.9051C302.628 51.9051 304.725 51.0503 306.352 49.3405C308.025 47.5875 308.86 45.2575 308.858 42.3503C308.856 39.4431 308.02 37.1336 306.352 35.4218C304.727 33.6688 302.631 32.7923 300.062 32.7923C297.494 32.7923 295.375 33.6688 293.704 35.4218C292.077 37.1315 291.265 39.441 291.267 42.3503C291.269 45.2595 292.081 47.5896 293.704 49.3405C295.385 51.0503 297.508 51.9051 300.075 51.9051H300.062Z" fill="#050409"/>
</svg>
