<?xml version="1.0" encoding="utf-8"?>
<!-- Generator: Adobe Illustrator 24.1.3, SVG Export Plug-In . SVG Version: 6.00 Build 0)  -->
<svg version="1.1" id="Слой_1" xmlns="http://www.w3.org/2000/svg" xmlns:xlink="http://www.w3.org/1999/xlink" x="0px" y="0px"
	 viewBox="0 0 158 36.5" style="enable-background:new 0 0 158 36.5;" xml:space="preserve">
<style type="text/css">
	.st0{fill:#282828;}
	.st1{fill:#6EB53B;}
</style>
<path class="st0" d="M137.1,1l0,3.9h3.9l0-3.9H137.1z"/>
<g>
	<path class="st1" d="M10.6,7.6c-3.2,0-6.1,1.4-8,3.7l2.6,3c1.2-1.7,3.2-2.7,5.4-2.7c3.7,0,6.7,3,6.7,6.7s-3,6.7-6.7,6.7
		c-2.5,0-4.7-1.4-5.8-3.4L0,25.8v10.7h3.9v-10c1.8,1.5,4.2,2.4,6.7,2.4c5.9,0,10.6-4.8,10.6-10.6C21.3,12.4,16.5,7.6,10.6,7.6z"/>
	<path class="st1" d="M33.9,28.9c3.2,0,6.1-1.4,8-3.7l-2.6-3c-1.2,1.7-3.2,2.7-5.4,2.7c-3.7,0-6.7-3-6.7-6.7s3-6.7,6.7-6.7
		c2.5,0,4.7,1.4,5.8,3.4l4.8-4.2V0h-3.9v10c-1.8-1.5-4.2-2.4-6.7-2.4c-5.9,0-10.6,4.8-10.6,10.6C23.3,24.1,28,28.9,33.9,28.9z"/>
	<path class="st1" d="M50.4,0h-3.9v28.5h3.9V0z"/>
	<path class="st0" d="M60.1,16h-5.9v3.9h5.9V16z"/>
	<path class="st0" d="M10.5,13.4c-0.3,0-0.6,0-0.9,0.1v1.1c-1.1,0.3-1.7,0.9-1.7,1.9c0,2.1,3.8,2.7,3.8,4c0,0.4-0.3,0.7-1,0.7
		c-0.8,0-1.2-0.5-1.4-1.4L7.6,20c0.3,1.1,0.8,1.9,2,2.2V23c0.3,0.1,0.6,0.1,0.9,0.1c0.3,0,0.6,0,0.9-0.1v-0.8c1.3-0.2,2.2-0.9,2.2-2
		c0-2.1-3.8-2.7-3.8-4c0-0.4,0.3-0.6,0.8-0.6c0.7,0,1,0.4,1.2,1.2l1.8-0.3c-0.3-1.1-0.9-1.9-2.1-2.1v-1.1
		C11.1,13.4,10.8,13.4,10.5,13.4z"/>
	<path class="st0" d="M72,7.6c-3.2,0-6.1,1.4-8,3.7l2.6,3c1.2-1.7,3.2-2.7,5.4-2.7c3.7,0,6.7,3,6.7,6.7S75.7,25,72,25
		c-2.5,0-4.7-1.4-5.8-3.4l-4.8,4.2v10.7h3.9v-10c1.8,1.5,4.2,2.4,6.7,2.4c5.9,0,10.6-4.8,10.6-10.6C82.6,12.4,77.8,7.6,72,7.6z"/>
	<path class="st0" d="M137.1,7.6l0,20.9h3.9l0-20.9H137.1z"/>
	<path class="st0" d="M97.4,11.5l0-3.9h-1.5c-2.5,0-4.9,0.9-6.7,2.4l0-2.4h-3.9l0,10.5c0,0,0,0.1,0,0.1v10.2h0v0h3.9l0-2.1l0-8.1
		c0-3.7,3-6.7,6.7-6.7L97.4,11.5z"/>
	<path class="st0" d="M108,7.6c-5.9,0-10.6,4.8-10.6,10.6s4.8,10.6,10.6,10.6c5.9,0,10.6-4.8,10.6-10.6S113.9,7.6,108,7.6z
		 M108,24.9c-3.7,0-6.7-3-6.7-6.7s3-6.7,6.7-6.7c3.7,0,6.7,3,6.7,6.7S111.7,24.9,108,24.9z"/>
	<path class="st0" d="M158,28.5l0-3.9l-3.9,0c-3.7,0-6.7-3-6.7-6.7h0v-6.4h6.7V7.5h-6.7V1h-3.9v16.8c0,5.9,4.8,10.6,10.6,10.6H158z"
		/>
	<path class="st0" d="M134.9,5l0-3.9H131c-5.9,0-10.6,4.8-10.6,10.6v16.8h3.9v-13h6.7v-3.9h-6.7c0.1-3.6,3-6.6,6.7-6.6L134.9,5z"/>
</g>
</svg>
