<svg width="1440" height="7692" fill="none" xmlns="http://www.w3.org/2000/svg"><g clip-path="url(#a)"><path fill="#FBFBFB" d="M0 0h1440v7692H0z"/><path d="m1229.81 1240.29 31.23 64.06 35.53-71.67-9.53 72.76 69.89-59.85-48.65 68.86 92.17-37.67-79.36 53.06 98.52-8.99-96.34 28.09 87.83 21.25-96.67-1.74 61.95 47.81-80.28-31.27 25.37 66.11-50.01-55.39-15.62 72.98-11.09-69.94-53.88 67.22 29.74-72.38-82.85 49.84 65.44-62.32-97.48 23.85 89.82-41.48-95.26-6.27 98.66-13.46-76.56-35.31 90.45 16.88-44.63-58.24 66.6 44.3-4.99-71.09Z" stroke="#fff" stroke-width="4"/><g opacity=".2" filter="url(#b)"><circle cx="454" cy="5881" r="147" fill="#FFB000"/></g><g opacity=".4" filter="url(#c)"><circle cx="283" cy="3389" r="147" fill="#FF57C6"/></g><g opacity=".6" filter="url(#d)"><circle cx="1503" cy="2138" r="147" fill="#FFB5E6"/></g><g opacity=".4" filter="url(#e)"><circle cx="1135" cy="3291" r="182" fill="#9F72FF"/></g><g opacity=".2" filter="url(#f)"><circle cx="1263" cy="6989" r="142" fill="#10E6D9"/></g><g opacity=".2" filter="url(#g)"><circle cx="1238" cy="6480" r="142" fill="#FF9BDD"/></g><g opacity=".2" filter="url(#h)"><circle cx="605" cy="2540" r="196" fill="#9F72FF"/></g><g opacity=".3" filter="url(#i)"><circle cx="1420" cy="1366" r="182" fill="#10E6D9"/></g><g opacity=".2" filter="url(#j)"><circle cx="45" cy="6943" r="118" fill="#FFB000"/></g><g opacity=".4" filter="url(#k)"><circle cx="1062" cy="5160" r="118" fill="#10E6D9"/></g><g opacity=".2" filter="url(#l)"><circle cx="493" cy="5112" r="179" fill="#FF57C6"/></g><g opacity=".3" filter="url(#m)"><circle cx="58" cy="1040" r="118" fill="#FFB000"/></g><g opacity=".5" filter="url(#n)"><circle cx="482" cy="380" r="147" fill="#FFB000"/></g><g opacity=".5" filter="url(#o)"><circle cx="184" cy="490" r="133" fill="#10E6D9"/></g><path d="m1152.5 6735 4.55 66.1 31.04-58.54-22.73 62.24 52.17-40.85-46.09 47.61 64.28-16.1-61.46 24.75 65.26 11.44-66.22-2.39 54.98 36.99-59.52-29.11 35.17 56.15-42.53-50.81 9.29 65.61-18.19-63.71-18.19 63.71 9.29-65.61-42.53 50.81 35.17-56.15-59.52 29.11 54.98-36.99-66.22 2.39 65.26-11.44-61.46-24.75 64.28 16.1-46.09-47.61 52.17 40.85-22.73-62.24 31.04 58.54 4.55-66.1Z" fill="#fff"/><g opacity=".4" filter="url(#p)"><circle cx="1456" cy="554" r="179" fill="#FFB5E6"/></g><g opacity=".5" filter="url(#q)"><circle cx="815" cy="1722" r="123" fill="#9F72FF"/></g><g opacity=".4" filter="url(#r)"><circle cx="1107" cy="1191" r="129" fill="#9F72FF"/></g><g opacity=".3" filter="url(#s)"><circle cx="651" cy="5688" r="179" fill="#FF57C6"/></g><g opacity=".4" filter="url(#t)"><circle cx="406" cy="7710" r="118" fill="#FF57C6"/></g></g><defs><filter id="b" x="57" y="5484" width="794" height="794" filterUnits="userSpaceOnUse" color-interpolation-filters="sRGB"><feFlood flood-opacity="0" result="BackgroundImageFix"/><feBlend in="SourceGraphic" in2="BackgroundImageFix" result="shape"/><feGaussianBlur stdDeviation="125" result="effect1_foregroundBlur_1175_123"/></filter><filter id="c" x="-114" y="2992" width="794" height="794" filterUnits="userSpaceOnUse" color-interpolation-filters="sRGB"><feFlood flood-opacity="0" result="BackgroundImageFix"/><feBlend in="SourceGraphic" in2="BackgroundImageFix" result="shape"/><feGaussianBlur stdDeviation="125" result="effect1_foregroundBlur_1175_123"/></filter><filter id="d" x="1106" y="1741" width="794" height="794" filterUnits="userSpaceOnUse" color-interpolation-filters="sRGB"><feFlood flood-opacity="0" result="BackgroundImageFix"/><feBlend in="SourceGraphic" in2="BackgroundImageFix" result="shape"/><feGaussianBlur stdDeviation="125" result="effect1_foregroundBlur_1175_123"/></filter><filter id="e" x="703" y="2859" width="864" height="864" filterUnits="userSpaceOnUse" color-interpolation-filters="sRGB"><feFlood flood-opacity="0" result="BackgroundImageFix"/><feBlend in="SourceGraphic" in2="BackgroundImageFix" result="shape"/><feGaussianBlur stdDeviation="125" result="effect1_foregroundBlur_1175_123"/></filter><filter id="f" x="971" y="6697" width="584" height="584" filterUnits="userSpaceOnUse" color-interpolation-filters="sRGB"><feFlood flood-opacity="0" result="BackgroundImageFix"/><feBlend in="SourceGraphic" in2="BackgroundImageFix" result="shape"/><feGaussianBlur stdDeviation="75" result="effect1_foregroundBlur_1175_123"/></filter><filter id="g" x="946" y="6188" width="584" height="584" filterUnits="userSpaceOnUse" color-interpolation-filters="sRGB"><feFlood flood-opacity="0" result="BackgroundImageFix"/><feBlend in="SourceGraphic" in2="BackgroundImageFix" result="shape"/><feGaussianBlur stdDeviation="75" result="effect1_foregroundBlur_1175_123"/></filter><filter id="h" x="259" y="2194" width="692" height="692" filterUnits="userSpaceOnUse" color-interpolation-filters="sRGB"><feFlood flood-opacity="0" result="BackgroundImageFix"/><feBlend in="SourceGraphic" in2="BackgroundImageFix" result="shape"/><feGaussianBlur stdDeviation="75" result="effect1_foregroundBlur_1175_123"/></filter><filter id="i" x="988" y="934" width="864" height="864" filterUnits="userSpaceOnUse" color-interpolation-filters="sRGB"><feFlood flood-opacity="0" result="BackgroundImageFix"/><feBlend in="SourceGraphic" in2="BackgroundImageFix" result="shape"/><feGaussianBlur stdDeviation="125" result="effect1_foregroundBlur_1175_123"/></filter><filter id="j" x="-323" y="6575" width="736" height="736" filterUnits="userSpaceOnUse" color-interpolation-filters="sRGB"><feFlood flood-opacity="0" result="BackgroundImageFix"/><feBlend in="SourceGraphic" in2="BackgroundImageFix" result="shape"/><feGaussianBlur stdDeviation="125" result="effect1_foregroundBlur_1175_123"/></filter><filter id="k" x="694" y="4792" width="736" height="736" filterUnits="userSpaceOnUse" color-interpolation-filters="sRGB"><feFlood flood-opacity="0" result="BackgroundImageFix"/><feBlend in="SourceGraphic" in2="BackgroundImageFix" result="shape"/><feGaussianBlur stdDeviation="125" result="effect1_foregroundBlur_1175_123"/></filter><filter id="l" x="64" y="4683" width="858" height="858" filterUnits="userSpaceOnUse" color-interpolation-filters="sRGB"><feFlood flood-opacity="0" result="BackgroundImageFix"/><feBlend in="SourceGraphic" in2="BackgroundImageFix" result="shape"/><feGaussianBlur stdDeviation="125" result="effect1_foregroundBlur_1175_123"/></filter><filter id="m" x="-310" y="672" width="736" height="736" filterUnits="userSpaceOnUse" color-interpolation-filters="sRGB"><feFlood flood-opacity="0" result="BackgroundImageFix"/><feBlend in="SourceGraphic" in2="BackgroundImageFix" result="shape"/><feGaussianBlur stdDeviation="125" result="effect1_foregroundBlur_1175_123"/></filter><filter id="n" x="135" y="33" width="694" height="694" filterUnits="userSpaceOnUse" color-interpolation-filters="sRGB"><feFlood flood-opacity="0" result="BackgroundImageFix"/><feBlend in="SourceGraphic" in2="BackgroundImageFix" result="shape"/><feGaussianBlur stdDeviation="100" result="effect1_foregroundBlur_1175_123"/></filter><filter id="o" x="-149" y="157" width="666" height="666" filterUnits="userSpaceOnUse" color-interpolation-filters="sRGB"><feFlood flood-opacity="0" result="BackgroundImageFix"/><feBlend in="SourceGraphic" in2="BackgroundImageFix" result="shape"/><feGaussianBlur stdDeviation="100" result="effect1_foregroundBlur_1175_123"/></filter><filter id="p" x="1027" y="125" width="858" height="858" filterUnits="userSpaceOnUse" color-interpolation-filters="sRGB"><feFlood flood-opacity="0" result="BackgroundImageFix"/><feBlend in="SourceGraphic" in2="BackgroundImageFix" result="shape"/><feGaussianBlur stdDeviation="125" result="effect1_foregroundBlur_1175_123"/></filter><filter id="q" x="442" y="1349" width="746" height="746" filterUnits="userSpaceOnUse" color-interpolation-filters="sRGB"><feFlood flood-opacity="0" result="BackgroundImageFix"/><feBlend in="SourceGraphic" in2="BackgroundImageFix" result="shape"/><feGaussianBlur stdDeviation="125" result="effect1_foregroundBlur_1175_123"/></filter><filter id="r" x="728" y="812" width="758" height="758" filterUnits="userSpaceOnUse" color-interpolation-filters="sRGB"><feFlood flood-opacity="0" result="BackgroundImageFix"/><feBlend in="SourceGraphic" in2="BackgroundImageFix" result="shape"/><feGaussianBlur stdDeviation="125" result="effect1_foregroundBlur_1175_123"/></filter><filter id="s" x="222" y="5259" width="858" height="858" filterUnits="userSpaceOnUse" color-interpolation-filters="sRGB"><feFlood flood-opacity="0" result="BackgroundImageFix"/><feBlend in="SourceGraphic" in2="BackgroundImageFix" result="shape"/><feGaussianBlur stdDeviation="125" result="effect1_foregroundBlur_1175_123"/></filter><filter id="t" x="38" y="7342" width="736" height="736" filterUnits="userSpaceOnUse" color-interpolation-filters="sRGB"><feFlood flood-opacity="0" result="BackgroundImageFix"/><feBlend in="SourceGraphic" in2="BackgroundImageFix" result="shape"/><feGaussianBlur stdDeviation="125" result="effect1_foregroundBlur_1175_123"/></filter><clipPath id="a"><path fill="#fff" d="M0 0h1440v7692H0z"/></clipPath></defs></svg>