<svg width="15" height="25" viewBox="0 0 22 30" fill="none" xmlns="http://www.w3.org/2000/svg">
<path d="M1 3.33333C1.77778 3.88889 3.93333 5 6.33333 5C9.33333 5 12 1.66667 15 1.66667C17.4 1.66667 19.5556 2.77778 20.3333 3.33333V9M1 3.33333V9M1 3.33333V1M20.3333 9V14.6667C19.5556 14.1111 17.4 13 15 13C12 13 9.33333 16.3333 6.33333 16.3333C3.93333 16.3333 1.77778 15.2222 1 14.6667M20.3333 9C19.5556 8.44444 17.4 7.33333 15 7.33333C12 7.33333 9.33333 10.6667 6.33333 10.6667C3.93333 10.6667 1.77778 9.55556 1 9M1 9V14.6667M1 14.6667V28.3333M14.3333 28.3333C12.3333 27.1668 8.33333 24.1338 8.33333 21.3341C8.33333 17.8345 12.5333 17.1345 14.3333 20.6342C16.1333 17.1345 20.3333 17.8345 20.3333 21.3341C20.3333 24.1338 16.3333 27.1668 14.3333 28.3333Z" stroke="black" stroke-width="1.6" stroke-linejoin="round"/>
</svg>
