<svg width="86" height="86" viewBox="0 0 86 86" fill="none" xmlns="http://www.w3.org/2000/svg">
<path d="M43 48.2564C47.6449 48.2564 51.4103 44.491 51.4103 39.8462C51.4103 35.2013 47.6449 31.4359 43 31.4359C38.3551 31.4359 34.5897 35.2013 34.5897 39.8462C34.5897 44.491 38.3551 48.2564 43 48.2564ZM43 48.2564C36.3759 48.2564 30.9442 53.3619 30.4252 59.8525M43 48.2564C49.6241 48.2564 55.0558 53.3619 55.5748 59.8525M30.4252 59.8525C33.9323 62.4736 38.2849 64.0256 43 64.0256C47.7151 64.0256 52.0677 62.4736 55.5748 59.8525M30.4252 59.8525C29.6516 59.2743 28.9192 58.6441 28.2331 57.9671M55.5748 59.8525C56.3484 59.2743 57.0808 58.6441 57.7669 57.9671M13.7643 13.5641C14.9425 12.3363 15.6667 10.6694 15.6667 8.83333C15.6667 5.05939 12.6073 2 8.83333 2C5.05939 2 2 5.05939 2 8.83333C2 12.6073 5.05939 15.6667 8.83333 15.6667C10.7712 15.6667 12.5207 14.86 13.7643 13.5641ZM13.7643 13.5641L28.2331 28.0329M28.2331 28.0329C24.3692 31.8454 21.9744 37.143 21.9744 43C21.9744 48.857 24.3692 54.1546 28.2331 57.9671M28.2331 28.0329C32.0297 24.2866 37.2448 21.9744 43 21.9744C48.7552 21.9744 53.9703 24.2866 57.7669 28.0329M57.7669 28.0329C61.6308 31.8454 64.0256 37.143 64.0256 43C64.0256 48.857 61.6308 54.1546 57.7669 57.9671M57.7669 28.0329L66.8514 18.9484M66.8514 18.9484C68.666 20.8148 71.204 21.9744 74.0128 21.9744C79.5286 21.9744 84 17.5029 84 11.9872C84 6.47141 79.5286 2 74.0128 2C68.4971 2 64.0256 6.47141 64.0256 11.9872C64.0256 14.6941 65.1026 17.1496 66.8514 18.9484ZM57.7669 57.9671L72.2357 72.4359M72.2357 72.4359C71.0575 73.6637 70.3333 75.3306 70.3333 77.1667C70.3333 80.9406 73.3927 84 77.1667 84C80.9406 84 84 80.9406 84 77.1667C84 73.3927 80.9406 70.3333 77.1667 70.3333C75.2288 70.3333 73.4793 71.14 72.2357 72.4359ZM28.2331 57.9671L19.1486 67.0516M19.1486 67.0516C17.334 65.1851 14.796 64.0256 11.9872 64.0256C6.47141 64.0256 2 68.4971 2 74.0128C2 79.5286 6.47141 84 11.9872 84C17.5029 84 21.9744 79.5286 21.9744 74.0128C21.9744 71.3059 20.8974 68.8504 19.1486 67.0516Z" stroke="black" stroke-width="3"/>
</svg>
