<svg width="30" height="30" viewBox="0 0 30 30" fill="none" xmlns="http://www.w3.org/2000/svg">
<path d="M10.3334 5.99996C10.3334 8.39319 8.39331 10.3333 6.00008 10.3333M10.3334 5.99996C10.3334 3.60673 8.39331 1.66663 6.00008 1.66663C3.60685 1.66663 1.66675 3.60673 1.66675 5.99996C1.66675 7.38751 2.3189 8.62274 3.33341 9.41585C4.06873 9.9907 4.9944 10.3333 6.00008 10.3333M10.3334 5.99996C11.7779 5.11107 15.6667 3.86663 19.6667 5.99996M6.00008 10.3333C4.13341 14.6 5.2223 18.3333 6.00008 19.6666M24.0001 10.3333C26.3933 10.3333 28.3334 8.39319 28.3334 5.99996C28.3334 3.60673 26.3933 1.66663 24.0001 1.66663C21.6068 1.66663 19.6667 3.60673 19.6667 5.99996M24.0001 10.3333C22.9944 10.3333 22.0687 9.9907 21.3334 9.41585C20.3189 8.62274 19.6667 7.38751 19.6667 5.99996M24.0001 10.3333C25.8667 14.6 24.7779 18.3333 24.0001 19.6666M10.3334 24C10.3334 26.3932 8.39331 28.3333 6.00008 28.3333C4.9944 28.3333 4.06873 27.9907 3.33341 27.4159C2.3189 26.6227 1.66675 25.3875 1.66675 24C1.66675 21.6067 3.60685 19.6666 6.00008 19.6666M10.3334 24C10.3334 21.6067 8.39331 19.6666 6.00008 19.6666M10.3334 24C11.7779 24.8888 15.6667 26.1333 19.6667 24M19.6667 24C19.6667 21.6067 21.6068 19.6666 24.0001 19.6666M19.6667 24C19.6667 25.3875 20.3189 26.6227 21.3334 27.4159C22.0687 27.9907 22.9944 28.3333 24.0001 28.3333C26.3933 28.3333 28.3334 26.3932 28.3334 24C28.3334 21.6067 26.3933 19.6666 24.0001 19.6666M13.0001 15H15.0001H17.0001M19.6667 15C19.6667 17.5773 17.5774 19.6666 15.0001 19.6666C14.1203 19.6666 13.2974 19.4232 12.595 19L11.3564 19.3651C10.8839 19.5044 10.4287 19.1007 10.5105 18.6149L10.7825 17C10.4945 16.3938 10.3334 15.7157 10.3334 15C10.3334 12.4226 12.4228 10.3333 15.0001 10.3333C17.5774 10.3333 19.6667 12.4226 19.6667 15Z" stroke="black" stroke-width="1.6"/>
</svg>
