<svg xmlns="http://www.w3.org/2000/svg" width="376" height="188" fill="none">
  <g fill="#0F26FD" opacity=".2">
    <path d="M150.4 0h75.2v37.6h-75.2zm0 150.4h75.2V188h-75.2zm0-112.8h75.2v37.6h-75.2zm0 37.6h75.2v37.6h-75.2z"/>
    <path d="M150.4 112.8h75.2v37.6h-75.2zM75.2 37.6h75.2v37.6H75.2zm0 37.6h75.2v37.6H75.2z"/>
    <path d="M75.2 112.8h75.2v37.6H75.2zM0 75.2h75.2v37.6H0zm225.6-37.6h75.2v37.6h-75.2zm0 37.6h75.2v37.6h-75.2z"/>
    <path d="M225.6 112.8h75.2v37.6h-75.2zm75.2-37.6H376v37.6h-75.2z"/>
  </g>
</svg>
