<svg width="30" height="30" viewBox="0 0 30 30" fill="none" xmlns="http://www.w3.org/2000/svg">
<path d="M5.66667 17.0851C5.66667 13.2723 8.77778 12.3191 10.3333 12.3191H15H19.6667C21.2222 12.3191 24.3333 13.2723 24.3333 17.0851M5.66667 17.0851H15H24.3333M5.66667 17.0851H1L3.33333 23.9362H8.875M8.875 23.9362L9.45833 29M8.875 23.9362L8.58333 20.6596H15H21.4167L21.125 23.9362M24.3333 17.0851H27.25M21.125 23.9362H26.6667L29 17.0851H27.25M21.125 23.9362L20.5417 29M27.25 17.0851C27.25 15.4965 26.55 11.9021 23.75 10.234M23.75 10.234V9.3156C23.75 8.67127 23.2277 8.14894 22.5833 8.14894H22.4592C21.8834 8.14894 21.4167 8.6157 21.4167 9.19149V9.19149C21.4167 9.76728 21.8834 10.234 22.4592 10.234H23.75ZM19.0833 5.17021C19.0833 7.47336 17.2552 9.34043 15 9.34043C12.7448 9.34043 10.9167 7.47336 10.9167 5.17021C10.9167 2.86707 12.7448 1 15 1C17.2552 1 19.0833 2.86707 19.0833 5.17021Z" stroke="black" stroke-width="1.6" stroke-linejoin="round"/>
</svg>
