<svg width="23" height="20" viewBox="0 0 23 20" fill="none" xmlns="http://www.w3.org/2000/svg">
<path fill-rule="evenodd" clip-rule="evenodd" d="M5.14776 11.3609C5.36984 11.4366 5.5436 11.6099 5.61791 11.8298L7.67216 17.91C7.83953 18.4053 8.45791 18.5819 8.86755 18.2512L11.5678 16.0716C11.9249 15.7833 12.4348 15.7712 12.8055 16.0421L18.02 19.8529C18.4649 20.178 19.1014 19.9364 19.2106 19.4009L22.9845 0.893789C23.1025 0.315039 22.5243 -0.163009 21.9674 0.0528527L0.479357 8.38136C-0.174202 8.63468 -0.15477 9.55372 0.508927 9.77992L5.14776 11.3609ZM7.46445 10.2436C6.97461 10.5336 6.74393 11.1125 6.90247 11.6539L7.98833 15.3623C8.06129 15.6114 8.42373 15.5976 8.47699 15.3437L8.96313 13.0255C9.00438 12.8288 9.10503 12.6491 9.25183 12.51L16.9891 5.1778C17.2055 4.97272 16.9423 4.63317 16.685 4.78548L7.46445 10.2436Z" fill="#FFE600"/>
</svg>
