<svg width="23" height="19" viewBox="0 0 23 19" fill="none" xmlns="http://www.w3.org/2000/svg">
<path fill-rule="evenodd" clip-rule="evenodd" d="M16.9873 18.7311C17.2848 18.9418 17.6683 18.9945 18.0102 18.8651C18.3521 18.7348 18.6034 18.4428 18.6792 18.089C19.4821 14.3153 21.4299 4.76386 22.1608 1.33117C22.2162 1.07245 22.1238 0.803566 21.9206 0.630776C21.7173 0.457987 21.4355 0.408091 21.1841 0.501415C17.3098 1.93547 5.37808 6.41228 0.501179 8.21687C0.191637 8.33144 -0.00979645 8.62897 0.000367619 8.95515C0.0114557 9.28225 0.231369 9.56592 0.548303 9.66109C2.73543 10.3153 5.60631 11.2254 5.60631 11.2254C5.60631 11.2254 6.94797 15.2772 7.64744 17.3377C7.73522 17.5965 7.93758 17.7997 8.20462 17.87C8.47073 17.9393 8.75533 17.8663 8.95399 17.6787C10.0776 16.6179 11.8147 14.9778 11.8147 14.9778C11.8147 14.9778 15.1153 17.3978 16.9873 18.7311ZM6.81399 10.7135L8.3654 15.8307L8.71005 12.5902C8.71005 12.5902 14.7041 7.18383 18.1211 4.10227C18.2208 4.01172 18.2347 3.86018 18.1515 3.75392C18.0693 3.64766 17.9178 3.62271 17.8041 3.69478C13.8438 6.22379 6.81399 10.7135 6.81399 10.7135Z" fill="white"/>
</svg>
