<svg width="35" height="29" viewBox="0 0 35 29" fill="none" xmlns="http://www.w3.org/2000/svg">
<path fill-rule="evenodd" clip-rule="evenodd" d="M26.6506 28.3913C27.112 28.718 27.7066 28.7996 28.2368 28.599C28.7669 28.397 29.1567 27.9442 29.2742 27.3954C30.5193 21.5437 33.5397 6.73236 34.6731 1.40933C34.7591 1.00814 34.6158 0.591177 34.3006 0.323235C33.9854 0.0552923 33.5483 -0.0220816 33.1586 0.122636C27.1507 2.34641 8.64833 9.28855 1.08577 12.0869C0.605763 12.2646 0.293403 12.726 0.309164 13.2317C0.326358 13.739 0.667375 14.1789 1.15884 14.3264C4.55039 15.3409 9.00224 16.7523 9.00224 16.7523C9.00224 16.7523 11.0827 23.0353 12.1674 26.2305C12.3035 26.6317 12.6173 26.947 13.0314 27.0559C13.4441 27.1633 13.8854 27.0501 14.1934 26.7593C15.9358 25.1143 18.6295 22.571 18.6295 22.571C18.6295 22.571 23.7477 26.3237 26.6506 28.3913ZM10.875 15.9585L13.2807 23.8936L13.8152 18.8686C13.8152 18.8686 23.1101 10.485 28.4087 5.70644C28.5635 5.56602 28.585 5.33103 28.456 5.16626C28.3285 5.00148 28.0935 4.96279 27.9172 5.07455C21.7761 8.99625 10.875 15.9585 10.875 15.9585Z" fill="black"/>
</svg>
