<?xml version="1.0" encoding="utf-8"?>
<!-- Generator: Adobe Illustrator 25.0.1, SVG Export Plug-In . SVG Version: 6.00 Build 0)  -->
<svg version="1.1" id="Layer_1" xmlns="http://www.w3.org/2000/svg" xmlns:xlink="http://www.w3.org/1999/xlink" x="0px" y="0px"
	 viewBox="0 0 660 367" style="enable-background:new 0 0 660 367;" xml:space="preserve">
<style type="text/css">
	.st0{fill:#FFD000;}
</style>
<path class="st0" d="M433.9,0.2L293.4,226.4l226.2,140.4L660,140.6L433.9,0.2z"/>
<path d="M80.5,156.2H54.8l3.1-15.2h70l-3.1,15.1H99.2l-13.1,65.2H67.5L80.5,156.2z"/>
<polygon points="284.6,155.9 287.7,141 224.5,141 217.9,174.1 205.8,174.1 212.4,141 193.9,141 187.2,174.1 150.9,174.1 157.5,141 
	138.8,141 122.8,221.3 141.5,221.3 147.9,189 184.2,189 177.8,221.3 196.4,221.3 202.8,189 214.9,189 208.4,221.3 270.6,221.3 
	273.7,206.4 229.9,206.4 233.3,189 265.1,189 277.6,189 280.6,174.1 265.1,174.1 236.4,174.1 240,155.9 "/>
<path d="M397,141l-52,80.3h19.8l19.6-32.3h24.9l7.1,32.3H435L415.3,141H397z M393.4,174.5l9.4-15.5l3.4,15.5H393.4z"/>
<polygon points="590.3,155.9 593.4,141 532.8,141 526.1,174.1 508.8,174.1 508.8,174.1 471.5,174.1 475.1,155.9 517,155.9 
	520.1,141 459.5,141 443.4,221.3 462.1,221.3 468.6,189 505.6,189 523.2,189 516.7,221.3 535.4,221.3 541.9,189 578.6,189 
	583.3,189 586.4,174.1 544.8,174.1 548.4,155.9 "/>
<polygon points="357.1,123.8 366.4,108.9 46.3,108.9 34,108.9 31,108.9 0,252.5 3,252.5 15.2,252.5 335.5,252.5 311.5,237.6 
	18.5,237.6 43.1,123.8 "/>
</svg>
