<svg width="42" height="24" viewBox="0 0 42 24" fill="none" xmlns="http://www.w3.org/2000/svg">
<path fill-rule="evenodd" clip-rule="evenodd" d="M36.1014 14.8021C37.4598 16.1074 38.8955 17.3354 40.1148 18.7725C40.6536 19.4101 41.1637 20.0692 41.5534 20.81C42.1065 21.8646 41.605 23.0238 40.645 23.0868L34.6743 23.084C33.134 23.2086 31.9046 22.5996 30.8716 21.5651C30.0448 20.7369 29.2797 19.8543 28.4844 18.9989C28.1592 18.6507 27.8182 18.3212 27.4098 18.0604C26.5945 17.5388 25.8881 17.6979 25.4224 18.5361C24.9467 19.3843 24.8393 20.3272 24.7934 21.2743C24.7289 22.6584 24.3048 23.0209 22.892 23.084C19.873 23.2229 17.0088 22.7745 14.348 21.2771C12.001 19.9589 10.1812 18.0933 8.59795 15.9842C5.51447 11.8748 3.15314 7.36133 1.03109 2.72034C0.553954 1.67723 0.903569 1.11412 2.07564 1.09406C4.02431 1.05824 5.97155 1.0611 7.92308 1.09119C8.71401 1.10265 9.23844 1.5497 9.54363 2.28475C10.5982 4.83379 11.8878 7.25673 13.5069 9.50487C13.9367 10.1052 14.3766 10.7027 15.0028 11.1225C15.6948 11.5897 16.2221 11.4363 16.5488 10.6769C16.7551 10.1969 16.8454 9.67681 16.8927 9.16242C17.046 7.38998 17.0675 5.62185 16.7967 3.85515C16.6291 2.75329 15.9986 2.0383 14.8796 1.83197C14.3093 1.72308 14.3938 1.51388 14.6704 1.19436C15.1504 0.641278 15.6017 0.298828 16.5015 0.298828H23.2502C24.3134 0.503725 24.5484 0.973699 24.6945 2.02541L24.7003 9.39597C24.6888 9.8029 24.9066 11.0122 25.6517 11.2816C26.2492 11.4722 26.6418 11.0036 27 10.6325C28.6163 8.94606 29.7683 6.95153 30.7985 4.88823C31.257 3.98124 31.6496 3.03843 32.0307 2.09705C32.313 1.39782 32.7557 1.05394 33.5567 1.0697L40.0504 1.07543C40.2438 1.07543 40.4387 1.07686 40.6249 1.10982C41.7196 1.29322 42.0191 1.7546 41.6809 2.80631C41.1479 4.45552 40.112 5.82818 39.099 7.20945C38.0157 8.68528 36.858 10.1067 35.7833 11.5897C34.7961 12.9437 34.8749 13.6257 36.1014 14.8021Z" fill="black"/>
</svg>
