<svg width="27" height="16" viewBox="0 0 27 16" fill="none" xmlns="http://www.w3.org/2000/svg">
<path fill-rule="evenodd" clip-rule="evenodd" d="M22.7492 9.9026C23.6252 10.7444 24.551 11.5362 25.3374 12.463C25.6848 12.8742 26.0137 13.2992 26.2651 13.777C26.6217 14.457 26.2983 15.2045 25.6792 15.2452L21.8289 15.2434C20.8356 15.3237 20.0428 14.931 19.3766 14.2639C18.8435 13.7298 18.35 13.1606 17.8372 12.609C17.6275 12.3845 17.4075 12.172 17.1442 12.0038C16.6184 11.6674 16.1629 11.77 15.8626 12.3106C15.5558 12.8576 15.4865 13.4656 15.457 14.0763C15.4154 14.9689 15.1419 15.2027 14.2308 15.2434C12.2839 15.333 10.4368 15.0438 8.72096 14.0782C7.20744 13.2281 6.03395 12.025 5.01293 10.6649C3.02447 8.01485 1.5017 5.10423 0.13325 2.11138C-0.174444 1.4387 0.0510132 1.07556 0.80685 1.06263C2.0635 1.03953 3.31922 1.04138 4.57772 1.06078C5.08777 1.06817 5.42596 1.35646 5.62277 1.83048C6.30284 3.47428 7.13444 5.03678 8.17857 6.48654C8.45577 6.8737 8.73944 7.25901 9.14323 7.52975C9.58953 7.83097 9.92956 7.73211 10.1402 7.24238C10.2733 6.93284 10.3315 6.59743 10.362 6.26571C10.4609 5.12271 10.4747 3.98249 10.3001 2.84319C10.192 2.13263 9.78542 1.67155 9.06377 1.53849C8.69602 1.46827 8.75053 1.33336 8.92887 1.12731C9.23841 0.770642 9.52947 0.549805 10.1097 0.549805H14.4618C15.1474 0.681938 15.299 0.985012 15.3932 1.66323L15.3969 6.41632C15.3895 6.67874 15.53 7.4586 16.0104 7.63231C16.3958 7.75521 16.6489 7.45306 16.8799 7.21374C17.9222 6.12618 18.6651 4.83997 19.3295 3.5094C19.6252 2.9245 19.8783 2.3165 20.1241 1.70943C20.3062 1.25852 20.5917 1.03676 21.1082 1.04692L25.2958 1.05062C25.4205 1.05062 25.5462 1.05154 25.6663 1.07279C26.3723 1.19107 26.5654 1.4886 26.3473 2.16682C26.0036 3.23035 25.3355 4.11554 24.6822 5.00629C23.9837 5.95801 23.2371 6.87463 22.5441 7.83097C21.9075 8.70416 21.9583 9.14399 22.7492 9.9026Z" fill="white"/>
</svg>
